<svg width="337" height="56" viewBox="0 0 337 56" fill="none" xmlns="http://www.w3.org/2000/svg">
<path d="M144.432 21.1591H135.932C135.689 19.7652 135.242 18.5303 134.591 17.4545C133.939 16.3636 133.129 15.4394 132.159 14.6818C131.189 13.9242 130.083 13.3561 128.841 12.9773C127.614 12.5833 126.288 12.3864 124.864 12.3864C122.333 12.3864 120.091 13.0227 118.136 14.2955C116.182 15.553 114.652 17.4015 113.545 19.8409C112.439 22.2652 111.886 25.2273 111.886 28.7273C111.886 32.2879 112.439 35.2879 113.545 37.7273C114.667 40.1515 116.197 41.9848 118.136 43.2273C120.091 44.4545 122.326 45.0682 124.841 45.0682C126.235 45.0682 127.538 44.8864 128.75 44.5227C129.977 44.1439 131.076 43.5909 132.045 42.8636C133.03 42.1364 133.856 41.2424 134.523 40.1818C135.205 39.1212 135.674 37.9091 135.932 36.5455L144.432 36.5909C144.114 38.803 143.424 40.8788 142.364 42.8182C141.318 44.7576 139.947 46.4697 138.25 47.9545C136.553 49.4242 134.568 50.5758 132.295 51.4091C130.023 52.2273 127.5 52.6364 124.727 52.6364C120.636 52.6364 116.985 51.6894 113.773 49.7955C110.561 47.9015 108.03 45.1667 106.182 41.5909C104.333 38.0152 103.409 33.7273 103.409 28.7273C103.409 23.7121 104.341 19.4242 106.205 15.8636C108.068 12.2879 110.606 9.55303 113.818 7.65909C117.03 5.76515 120.667 4.81818 124.727 4.81818C127.318 4.81818 129.727 5.18182 131.955 5.90909C134.182 6.63636 136.167 7.70455 137.909 9.11364C139.652 10.5076 141.083 12.2197 142.205 14.25C143.341 16.2652 144.083 18.5682 144.432 21.1591ZM163.177 52.6818C159.768 52.6818 156.813 51.9318 154.313 50.4318C151.813 48.9318 149.874 46.8333 148.495 44.1364C147.132 41.4394 146.45 38.2879 146.45 34.6818C146.45 31.0758 147.132 27.9167 148.495 25.2045C149.874 22.4924 151.813 20.3864 154.313 18.8864C156.813 17.3864 159.768 16.6364 163.177 16.6364C166.586 16.6364 169.541 17.3864 172.041 18.8864C174.541 20.3864 176.473 22.4924 177.836 25.2045C179.215 27.9167 179.904 31.0758 179.904 34.6818C179.904 38.2879 179.215 41.4394 177.836 44.1364C176.473 46.8333 174.541 48.9318 172.041 50.4318C169.541 51.9318 166.586 52.6818 163.177 52.6818ZM163.222 46.0909C165.071 46.0909 166.616 45.5833 167.859 44.5682C169.101 43.5379 170.026 42.1591 170.632 40.4318C171.253 38.7045 171.563 36.7803 171.563 34.6591C171.563 32.5227 171.253 30.5909 170.632 28.8636C170.026 27.1212 169.101 25.7348 167.859 24.7045C166.616 23.6742 165.071 23.1591 163.222 23.1591C161.329 23.1591 159.753 23.6742 158.495 24.7045C157.253 25.7348 156.321 27.1212 155.7 28.8636C155.094 30.5909 154.791 32.5227 154.791 34.6591C154.791 36.7803 155.094 38.7045 155.7 40.4318C156.321 42.1591 157.253 43.5379 158.495 44.5682C159.753 45.5833 161.329 46.0909 163.222 46.0909ZM183.411 52V5.45454H191.638V22.8636H191.979C192.403 22.0152 193.002 21.1136 193.775 20.1591C194.547 19.1894 195.593 18.3636 196.911 17.6818C198.229 16.9848 199.911 16.6364 201.956 16.6364C204.653 16.6364 207.085 17.3258 209.252 18.7045C211.434 20.0682 213.161 22.0909 214.434 24.7727C215.722 27.4394 216.365 30.7121 216.365 34.5909C216.365 38.4242 215.737 41.6818 214.479 44.3636C213.222 47.0455 211.509 49.0909 209.343 50.5C207.176 51.9091 204.722 52.6136 201.979 52.6136C199.979 52.6136 198.32 52.2803 197.002 51.6136C195.684 50.947 194.623 50.1439 193.82 49.2045C193.032 48.25 192.418 47.3485 191.979 46.5H191.502V52H183.411ZM191.479 34.5455C191.479 36.803 191.797 38.7803 192.434 40.4773C193.085 42.1742 194.017 43.5 195.229 44.4545C196.456 45.3939 197.941 45.8636 199.684 45.8636C201.502 45.8636 203.025 45.3788 204.252 44.4091C205.479 43.4242 206.403 42.0833 207.025 40.3864C207.661 38.6742 207.979 36.7273 207.979 34.5455C207.979 32.3788 207.668 30.4545 207.047 28.7727C206.426 27.0909 205.502 25.7727 204.275 24.8182C203.047 23.8636 201.517 23.3864 199.684 23.3864C197.926 23.3864 196.434 23.8485 195.206 24.7727C193.979 25.697 193.047 26.9924 192.411 28.6591C191.79 30.3258 191.479 32.2879 191.479 34.5455ZM241.77 37.3182V17.0909H249.997V52H242.02V45.7955H241.656C240.868 47.75 239.573 49.3485 237.77 50.5909C235.982 51.8333 233.777 52.4545 231.156 52.4545C228.868 52.4545 226.846 51.947 225.088 50.9318C223.346 49.9015 221.982 48.4091 220.997 46.4545C220.012 44.4848 219.52 42.1061 219.52 39.3182V17.0909H227.747V38.0455C227.747 40.2576 228.353 42.0152 229.565 43.3182C230.777 44.6212 232.368 45.2727 234.338 45.2727C235.55 45.2727 236.724 44.9773 237.861 44.3864C238.997 43.7955 239.929 42.9167 240.656 41.75C241.399 40.5682 241.77 39.0909 241.77 37.3182ZM254.617 52V17.0909H262.845V52H254.617ZM258.754 12.1364C257.451 12.1364 256.329 11.7045 255.39 10.8409C254.451 9.96212 253.981 8.90909 253.981 7.68182C253.981 6.43939 254.451 5.38636 255.39 4.52272C256.329 3.64394 257.451 3.20454 258.754 3.20454C260.072 3.20454 261.193 3.64394 262.117 4.52272C263.057 5.38636 263.526 6.43939 263.526 7.68182C263.526 8.90909 263.057 9.96212 262.117 10.8409C261.193 11.7045 260.072 12.1364 258.754 12.1364ZM275.692 5.45454V52H267.465V5.45454H275.692ZM293.267 52.6136C290.524 52.6136 288.07 51.9091 285.903 50.5C283.737 49.0909 282.024 47.0455 280.767 44.3636C279.509 41.6818 278.88 38.4242 278.88 34.5909C278.88 30.7121 279.517 27.4394 280.79 24.7727C282.077 22.0909 283.812 20.0682 285.994 18.7045C288.176 17.3258 290.608 16.6364 293.29 16.6364C295.335 16.6364 297.017 16.9848 298.335 17.6818C299.653 18.3636 300.699 19.1894 301.471 20.1591C302.244 21.1136 302.843 22.0152 303.267 22.8636H303.608V5.45454H311.858V52H303.767V46.5H303.267C302.843 47.3485 302.229 48.25 301.426 49.2045C300.623 50.1439 299.562 50.947 298.244 51.6136C296.926 52.2803 295.267 52.6136 293.267 52.6136ZM295.562 45.8636C297.305 45.8636 298.79 45.3939 300.017 44.4545C301.244 43.5 302.176 42.1742 302.812 40.4773C303.449 38.7803 303.767 36.803 303.767 34.5455C303.767 32.2879 303.449 30.3258 302.812 28.6591C302.191 26.9924 301.267 25.697 300.04 24.7727C298.827 23.8485 297.335 23.3864 295.562 23.3864C293.729 23.3864 292.199 23.8636 290.971 24.8182C289.744 25.7727 288.82 27.0909 288.199 28.7727C287.577 30.4545 287.267 32.3788 287.267 34.5455C287.267 36.7273 287.577 38.6742 288.199 40.3864C288.835 42.0833 289.767 43.4242 290.994 44.4091C292.237 45.3788 293.759 45.8636 295.562 45.8636ZM316.785 52V17.0909H324.762V22.9091H325.126C325.762 20.8939 326.853 19.3409 328.398 18.25C329.959 17.1439 331.739 16.5909 333.739 16.5909C334.194 16.5909 334.701 16.6136 335.262 16.6591C335.838 16.6894 336.315 16.7424 336.694 16.8182V24.3864C336.345 24.2652 335.792 24.1591 335.035 24.0682C334.292 23.9621 333.573 23.9091 332.876 23.9091C331.376 23.9091 330.027 24.2348 328.83 24.8864C327.648 25.5227 326.717 26.4091 326.035 27.5455C325.353 28.6818 325.012 29.9924 325.012 31.4773V52H316.785Z" fill="#100F0F"/>
<path fill-rule="evenodd" clip-rule="evenodd" d="M42 3.7459C33.6308 8.58723 28 17.636 28 28C28 38.364 33.6308 47.4128 42 52.2541C37.8816 54.6365 33.1 56 28 56C12.536 56 0 43.464 0 28C0 12.536 12.536 0 28 0C33.1 0 37.8816 1.36352 42 3.7459Z" fill="#FF8400"/>
<path fill-rule="evenodd" clip-rule="evenodd" d="M42 3.74592C50.3692 8.58726 55.9999 17.6361 55.9999 28C55.9999 38.3639 50.3692 47.4127 42 52.2541C46.1184 54.6365 50.9 56 56 56C71.464 56 84 43.464 84 28C84 12.536 71.464 0 56 0C50.9 0 46.1184 1.36353 42 3.74592Z" fill="#FF8400"/>
</svg>
