<svg width="30" height="20" viewBox="0 0 30 20" fill="none" xmlns="http://www.w3.org/2000/svg">
<g id="Visual">
<path id="Subtract" fill-rule="evenodd" clip-rule="evenodd" d="M15 1.33782C12.011 3.06687 10 6.29859 10 10C10 13.7014 12.011 16.9331 15 18.6622C13.5291 19.513 11.8214 20 10 20C4.47715 20 0 15.5228 0 10C0 4.47715 4.47715 0 10 0C11.8214 0 13.5291 0.486972 15 1.33782Z" fill="#FF8400"/>
<path id="Subtract_2" fill-rule="evenodd" clip-rule="evenodd" d="M15 1.33782C17.989 3.06687 20 6.29859 20 10C20 13.7014 17.989 16.9331 15 18.6622C16.4709 19.513 18.1786 20 20 20C25.5228 20 30 15.5228 30 10C30 4.47715 25.5228 0 20 0C18.1786 0 16.4709 0.486972 15 1.33782Z" fill="#FF8400"/>
</g>
</svg>
